<svg xmlns="http://www.w3.org/2000/svg" width="41.781" height="83.5" viewBox="0 0 41.781 83.5">
  <path class="fvpupe-order-handle-updown" d="M105.1,272.975a3.938,3.938,0,0,0-3.593-2.351H88.445V239.273h13.062a3.574,3.574,0,0,0,3.446-2.353,3.921,3.921,0,0,0-.72-4.232L87.252,214.4a3.4,3.4,0,0,0-2.726-1.2,3.912,3.912,0,0,0-2.872,1.2L64.672,232.688a3.918,3.918,0,0,0,2.872,6.585H80.607v31.351H67.544a3.919,3.919,0,0,0-2.873,6.585L81.506,295.5a4.046,4.046,0,0,0,5.746,0l16.982-18.289A3.711,3.711,0,0,0,105.1,272.975Z" transform="translate(-63.625 -213.188)"/>
</svg>