<svg xmlns="http://www.w3.org/2000/svg" width="109.031" height="108.937" viewBox="0 0 109.031 108.937">
  <path class="order-handle-svg" d="M258.658,200.4a5.126,5.126,0,0,1-1.69,3.8l-17.037,15.332a5.111,5.111,0,0,1-8.531-3.8V205.51H209.252v22.148h10.031a5.112,5.112,0,0,1,3.8,8.531l-15.333,17.037a4.563,4.563,0,0,1-3.8,1.69,4.826,4.826,0,0,1-3.8-1.69L185.01,236.189a5.112,5.112,0,0,1,3.8-8.531h10.222V205.51H176.883v10.222a5.11,5.11,0,0,1-3.03,4.668,5.2,5.2,0,0,1-2.081.443,5.114,5.114,0,0,1-3.42-1.311L151.316,204.2a5.116,5.116,0,0,1,0-7.6l17.037-15.332a5.112,5.112,0,0,1,8.531,3.8v10.222h22.148V173.141H188.617a4.993,4.993,0,0,1-3.6-8.531l15.141-17.036a5.287,5.287,0,0,1,7.6,0l15.332,17.036a5.112,5.112,0,0,1-3.8,8.531H209.252v22.148H231.4V185.067a5.112,5.112,0,0,1,8.531-3.8L256.967,196.6A5.123,5.123,0,0,1,258.658,200.4Z" transform="translate(-149.625 -145.969)"/>
</svg>
